[h264 @ 0x55afc65c1240] Reinit context to 1280x720, pix_fmt: yuv420p
Input #0, mov,mp4,m4a,3gp,3g2,mj2, from '/var/www/html/project/media/video/original/1000164594.mp4':
  Metadata:
    major_brand     : isom
    minor_version   : 512
    compatible_brands: isomiso2avc1mp41
    creation_time   : 2024-10-04T14:45:45.000000Z
  Duration: 00:01:19.68, start: 0.000000, bitrate: 3069 kb/s
    Stream #0:0(eng): Audio: aac (LC) (mp4a / 0x6134706D), 48000 Hz, stereo, fltp, 128 kb/s (default)
    Metadata:
      creation_time   : 2024-10-04T14:44:25.000000Z
      handler_name    : SoundHandle
    Stream #0:1(eng): Video: h264 (High), 1 reference frame (avc1 / 0x31637661), yuv420p(tv, bt470bg/bt470bg/smpte170m, left), 1280x720, 2934 kb/s, 30 fps, 30 tbr, 90k tbn, 180k tbc (default)
    Metadata:
      creation_time   : 2024-10-04T14:44:25.000000Z
      handler_name    : VideoHandle
Input #1, png_pipe, from '/var/www/html/project/static/images/templates/logo.png':
  Duration: N/A, bitrate: N/A
    Stream #1:0: Video: png, 1 reference frame, rgba(pc), 1920x1080 [SAR 2835:2835 DAR 16:9], 25 tbr, 25 tbn, 25 tbc
[h264 @ 0x55afc65eb900] Reinit context to 1280x720, pix_fmt: yuv420p
Input #2, mov,mp4,m4a,3gp,3g2,mj2, from '/var/www/html/project/static/images/templates/Codino.mp4':
  Metadata:
    major_brand     : mp42
    minor_version   : 1
    compatible_brands: isommp41mp42
    creation_time   : 2021-07-11T07:02:58.000000Z
  Duration: 00:00:02.00, start: 0.000000, bitrate: 1007 kb/s
    Stream #2:0(ita): Audio: aac (LC) (mp4a / 0x6134706D), 44100 Hz, stereo, fltp, 102 kb/s (default)
    Metadata:
      creation_time   : 2021-07-11T07:02:58.000000Z
      handler_name    : Core Media Audio
    Stream #2:1(und): Video: h264 (High), 1 reference frame (avc1 / 0x31637661), yuv420p(tv, bt709, progressive, left), 1280x720 [SAR 1:1 DAR 16:9], 813 kb/s, 25 fps, 25 tbr, 25k tbn, 50k tbc (default)
    Metadata:
      creation_time   : 2021-07-11T07:02:58.000000Z
      handler_name    : Core Media Video
[Parsed_scale_0 @ 0x55afc6607180] w:1920 h:1080 flags:'bilinear' interl:0
[Parsed_scale_2 @ 0x55afc664a080] w:1920 h:1080 flags:'bilinear' interl:0
[Parsed_scale_4 @ 0x55afc6683ac0] w:1920 h:1080 flags:'bilinear' interl:0
Stream mapping:
  Stream #0:0 (aac) -> concat:in0:a0
  Stream #0:1 (h264) -> scale
  Stream #1:0 (png) -> scale
  Stream #2:0 (aac) -> concat:in1:a0
  Stream #2:1 (h264) -> scale
  concat:out:v0 -> Stream #0:0 (libx264)
  concat:out:a0 -> Stream #0:1 (aac)
Press [q] to stop, [?] for help
[h264 @ 0x55afc667b2c0] Reinit context to 1280x720, pix_fmt: yuv420p
[h264 @ 0x55afc69ee080] Reinit context to 1280x720, pix_fmt: yuv420p
[Parsed_scale_0 @ 0x55afc78bda80] w:1920 h:1080 flags:'bilinear' interl:0
[Parsed_scale_2 @ 0x55afc78c6300] w:1920 h:1080 flags:'bilinear' interl:0
[Parsed_scale_4 @ 0x55afc78c73c0] w:1920 h:1080 flags:'bilinear' interl:0
[graph 0 input from stream 0:1 @ 0x55afc78cbb00] w:1280 h:720 pixfmt:yuv420p tb:1/90000 fr:30/1 sar:0/1 sws_param:flags=2
[graph 0 input from stream 1:0 @ 0x55afc78ccb80] w:1920 h:1080 pixfmt:rgba tb:1/25 fr:25/1 sar:2835/2835 sws_param:flags=2
[graph 0 input from stream 2:1 @ 0x55afc78cdc00] w:1280 h:720 pixfmt:yuv420p tb:1/25000 fr:25/1 sar:1/1 sws_param:flags=2
[graph_0_in_0_0 @ 0x55afc78cebc0] tb:1/48000 samplefmt:fltp samplerate:48000 chlayout:0x3
[graph_0_in_2_0 @ 0x55afc78cfd00] tb:1/44100 samplefmt:fltp samplerate:44100 chlayout:0x3
[Parsed_concat_7 @ 0x55afc78c9b80] auto-inserting filter 'auto_resampler_0' between the filter 'graph_0_in_2_0' and the filter 'Parsed_concat_7'
[Parsed_scale_0 @ 0x55afc78bda80] w:1280 h:720 fmt:yuv420p sar:0/1 -> w:1920 h:1080 fmt:yuv420p sar:0/1 flags:0x2
[Parsed_setsar_1 @ 0x55afc78c58c0] w:1920 h:1080 sar:0/1 dar:16/9 -> sar:1/1 dar:16/9
[Parsed_scale_2 @ 0x55afc78c6300] w:1920 h:1080 fmt:rgba sar:2835/2835 -> w:1920 h:1080 fmt:yuva420p sar:1/1 flags:0x2
[Parsed_setsar_3 @ 0x55afc78c6780] w:1920 h:1080 sar:1/1 dar:16/9 -> sar:1/1 dar:16/9
[Parsed_overlay_6 @ 0x55afc78c8a40] main w:1920 h:1080 fmt:yuv420p overlay w:1920 h:1080 fmt:yuva420p
[Parsed_overlay_6 @ 0x55afc78c8a40] [framesync @ 0x55afc78c8b68] Selected 1/90000 time base
[Parsed_overlay_6 @ 0x55afc78c8a40] [framesync @ 0x55afc78c8b68] Sync level 2
[Parsed_scale_4 @ 0x55afc78c73c0] w:1280 h:720 fmt:yuv420p sar:1/1 -> w:1920 h:1080 fmt:yuv420p sar:1/1 flags:0x2
[Parsed_setsar_5 @ 0x55afc78c7e80] w:1920 h:1080 sar:1/1 dar:16/9 -> sar:1/1 dar:16/9
[auto_resampler_0 @ 0x55afc78d8780] ch:2 chl:stereo fmt:fltp r:44100Hz -> ch:2 chl:stereo fmt:fltp r:48000Hz
[libx264 @ 0x55afc6648c00] using SAR=1/1
[libx264 @ 0x55afc6648c00] using cpu capabilities: MMX2 SSE2Fast SSSE3 SSE4.2 AVX FMA3 BMI2 AVX2
[libx264 @ 0x55afc6648c00] profile High, level 4.0
[libx264 @ 0x55afc6648c00] 264 - core 155 r2917 0a84d98 - H.264/MPEG-4 AVC codec - Copyleft 2003-2018 - http://www.videolan.org/x264.html - options: cabac=1 ref=1 deblock=1:0:0 analyse=0x3:0x113 me=hex subme=2 psy=1 psy_rd=1.00:0.00 mixed_ref=0 me_range=16 chroma_me=1 trellis=0 8x8dct=1 cqm=0 deadzone=21,11 fast_pskip=1 chroma_qp_offset=0 threads=24 lookahead_threads=8 sliced_threads=0 nr=0 decimate=1 interlaced=0 bluray_compat=0 constrained_intra=0 bframes=3 b_pyramid=2 b_adapt=1 b_bias=0 direct=1 weightb=1 open_gop=0 weightp=1 keyint=250 keyint_min=25 scenecut=40 intra_refresh=0 rc_lookahead=10 rc=crf mbtree=1 crf=18.0 qcomp=0.60 qpmin=0 qpmax=69 qpstep=4 ip_ratio=1.40 aq=1:1.00
Output #0, mp4, to '/var/www/html/project/media/video/watermarks/1000164594.mp4':
  Metadata:
    major_brand     : isom
    minor_version   : 512
    compatible_brands: isomiso2avc1mp41
    encoder         : Lavf58.29.100
    Stream #0:0: Video: h264 (libx264), 1 reference frame (avc1 / 0x31637661), yuv420p(progressive), 1920x1080 [SAR 1:1 DAR 16:9], q=-1--1, 30 fps, 15360 tbn, 30 tbc (default)
    Metadata:
      encoder         : Lavc58.54.100 libx264
    Side data:
      cpb: bitrate max/min/avg: 0/0/0 buffer size: 0 vbv_delay: -1
    Stream #0:1: Audio: aac (LC) (mp4a / 0x6134706D), 48000 Hz, stereo, fltp, delay 1024, 128 kb/s (default)
    Metadata:
      encoder         : Lavc58.54.100 aac
[Parsed_concat_7 @ 0x55afc78c9b80] EOF on in0:a0, 1 streams left in segment.
[Parsed_overlay_6 @ 0x55afc78c8a40] [framesync @ 0x55afc78c8b68] Sync level 0
[Parsed_concat_7 @ 0x55afc78c9b80] EOF on in0:v0, 0 streams left in segment.
[Parsed_concat_7 @ 0x55afc78c9b80] Segment finished at pts=79678729
[Parsed_concat_7 @ 0x55afc78c9b80] EOF on in1:v0, 1 streams left in segment.
[Parsed_concat_7 @ 0x55afc78c9b80] EOF on in1:a0, 0 streams left in segment.
[Parsed_concat_7 @ 0x55afc78c9b80] Segment finished at pts=81697416
No more output streams to write to, finishing.
frame= 2440 fps= 38 q=-1.0 Lsize=   97736kB time=00:01:21.70 bitrate=9799.3kbits/s speed=1.26x    
[AVIOContext @ 0x55afc65b9440] Statistics: 0 seeks, 125 writeouts
video:96372kB audio:1275kB subtitle:0kB other streams:0kB global headers:0kB muxing overhead: 0.091579%
Input file #0 (/var/www/html/project/media/video/original/1000164594.mp4):
  Input stream #0:0 (audio): 3735 packets read (1274881 bytes); 3735 frames decoded (3824640 samples); 
  Input stream #0:1 (video): 2390 packets read (29223919 bytes); 2390 frames decoded; 
  Total: 6125 packets (30498800 bytes) demuxed
Input file #1 (/var/www/html/project/static/images/templates/logo.png):
  Input stream #1:0 (video): 1 packets read (111578 bytes); 1 frames decoded; 
  Total: 1 packets (111578 bytes) demuxed
Input file #2 (/var/www/html/project/static/images/templates/Codino.mp4):
  Input stream #2:0 (audio): 89 packets read (26579 bytes); 87 frames decoded (89024 samples); 
  Input stream #2:1 (video): 50 packets read (203365 bytes); 50 frames decoded; 
  Total: 139 packets (229944 bytes) demuxed
Output file #0 (/var/www/html/project/media/video/watermarks/1000164594.mp4):
  Output stream #0:0 (video): 2440 frames encoded; 2440 packets muxed (98684674 bytes); 
  Output stream #0:1 (audio): 3830 frames encoded (3921537 samples); 3831 packets muxed (1305312 bytes); 
  Total: 6271 packets (99989986 bytes) muxed
[AVIOContext @ 0x55afc6682e00] Statistics: 2 seeks, 385 writeouts
[libx264 @ 0x55afc6648c00] frame I:15    Avg QP:15.78  size:124063
[libx264 @ 0x55afc6648c00] frame P:702   Avg QP:18.57  size: 62198
[libx264 @ 0x55afc6648c00] frame B:1723  Avg QP:20.61  size: 30853
[libx264 @ 0x55afc6648c00] consecutive B-frames:  3.4%  4.1%  9.3% 83.1%
[libx264 @ 0x55afc6648c00] mb I  I16..4: 17.4% 31.5% 51.1%
[libx264 @ 0x55afc6648c00] mb P  I16..4:  9.5% 32.1% 13.4%  P16..4: 15.0% 12.2%  7.1%  0.0%  0.0%    skip:10.7%
[libx264 @ 0x55afc6648c00] mb B  I16..4:  2.2% 10.0%  4.5%  B16..8: 23.7% 12.9%  2.1%  direct: 8.8%  skip:35.7%  L0:44.8% L1:41.9% BI:13.3%
[libx264 @ 0x55afc6648c00] 8x8 transform intra:58.5% inter:43.7%
[libx264 @ 0x55afc6648c00] coded y,uvDC,uvAC intra: 70.1% 41.8% 4.8% inter: 16.0% 13.8% 0.2%
[libx264 @ 0x55afc6648c00] i16 v,h,dc,p: 38% 45%  9%  7%
[libx264 @ 0x55afc6648c00] i8 v,h,dc,ddl,ddr,vr,hd,vl,hu: 21% 33% 11%  3%  7%  6%  8%  4%  6%
[libx264 @ 0x55afc6648c00] i4 v,h,dc,ddl,ddr,vr,hd,vl,hu: 24% 23%  8%  5% 11%  9%  9%  6%  5%
[libx264 @ 0x55afc6648c00] i8c dc,h,v,p: 54% 26% 17%  4%
[libx264 @ 0x55afc6648c00] Weighted P-Frames: Y:7.7% UV:0.6%
[libx264 @ 0x55afc6648c00] kb/s:9667.00
[aac @ 0x55afc6605b40] Qavg: 823.842
[AVIOContext @ 0x55afc65c23c0] Statistics: 30623332 bytes read, 2 seeks
[AVIOContext @ 0x55afc6617380] Statistics: 111578 bytes read, 0 seeks
[AVIOContext @ 0x55afc6625bc0] Statistics: 1530915 bytes read, 42 seeks
